<svg xmlns="http://www.w3.org/2000/svg" viewBox="0 0 32 32">
  <defs>
    <linearGradient id="rocketGrad" x1="0%" y1="0%" x2="100%" y2="100%">
      <stop offset="0%" style="stop-color:#D946EF"/>
      <stop offset="50%" style="stop-color:#A855F7"/>
      <stop offset="100%" style="stop-color:#5B2EFF"/>
    </linearGradient>
    <linearGradient id="flameGrad" x1="0%" y1="0%" x2="0%" y2="100%">
      <stop offset="0%" style="stop-color:#FF6B00"/>
      <stop offset="100%" style="stop-color:#FF8C00"/>
    </linearGradient>
  </defs>
  <!-- Rocket body -->
  <path d="M16 2 C12 2 10 6 10 10 L10 18 C10 20 12 22 14 23 L14 26 L12 28 L16 25 L20 28 L18 26 L18 23 C20 22 22 20 22 18 L22 10 C22 6 20 2 16 2 Z" fill="url(#rocketGrad)"/>
  <!-- Window -->
  <circle cx="16" cy="12" r="3" fill="#fff" opacity="0.9"/>
  <circle cx="15" cy="11" r="1" fill="#fff"/>
  <!-- Left fin -->
  <path d="M10 18 L6 24 L10 22 Z" fill="url(#rocketGrad)"/>
  <!-- Right fin -->
  <path d="M22 18 L26 24 L22 22 Z" fill="url(#rocketGrad)"/>
  <!-- Flame -->
  <path d="M13 26 L16 30 L19 26 Z" fill="url(#flameGrad)"/>
  <path d="M14 25 L16 28 L18 25 Z" fill="#FFD700"/>
</svg>